<mxfile host="app.diagrams.net" modified="2024-07-22T08:11:41.531Z" agent="Mozilla/5.0 (Windows NT 10.0; Win64; x64) AppleWebKit/537.36 (KHTML, like Gecko) Chrome/126.0.0.0 Safari/537.36" etag="xSP0YueYlL1vghHDjGj8" version="24.6.5" type="device">
  <diagram name="Page-1" id="edf60f1a-56cd-e834-aa8a-f176f3a09ee4">
    <mxGraphModel dx="2055" dy="733" grid="0" gridSize="10" guides="1" tooltips="1" connect="1" arrows="1" fold="1" page="0" pageScale="1" pageWidth="1100" pageHeight="850" background="none" math="0" shadow="0">
      <root>
        <mxCell id="0" />
        <mxCell id="1" parent="0" />
        <mxCell id="1gM_MYu2zcnsxkpQIaez-31" value="" style="group" parent="1" vertex="1" connectable="0">
          <mxGeometry x="-526" y="415.5" width="163" height="226" as="geometry" />
        </mxCell>
        <mxCell id="1gM_MYu2zcnsxkpQIaez-19" value="" style="rounded=0;whiteSpace=wrap;html=1;" parent="1gM_MYu2zcnsxkpQIaez-31" vertex="1">
          <mxGeometry y="6" width="147" height="216" as="geometry" />
        </mxCell>
        <mxCell id="1gM_MYu2zcnsxkpQIaez-23" value="&lt;span style=&quot;font-size: 18px;&quot;&gt;&lt;b&gt;Read&lt;/b&gt;&lt;/span&gt;&lt;div&gt;&lt;span style=&quot;font-size: 18px;&quot;&gt;&lt;b&gt;register1&lt;/b&gt;&lt;/span&gt;&lt;/div&gt;" style="text;html=1;align=left;verticalAlign=middle;resizable=0;points=[];autosize=1;strokeColor=none;fillColor=none;" parent="1gM_MYu2zcnsxkpQIaez-31" vertex="1">
          <mxGeometry x="1" y="2" width="94" height="55" as="geometry" />
        </mxCell>
        <mxCell id="1gM_MYu2zcnsxkpQIaez-26" value="&lt;span style=&quot;font-size: 18px;&quot;&gt;&lt;b&gt;Read&lt;/b&gt;&lt;/span&gt;&lt;div&gt;&lt;span style=&quot;font-size: 18px;&quot;&gt;&lt;b&gt;register2&lt;/b&gt;&lt;/span&gt;&lt;/div&gt;" style="text;html=1;align=left;verticalAlign=middle;resizable=0;points=[];autosize=1;strokeColor=none;fillColor=none;" parent="1gM_MYu2zcnsxkpQIaez-31" vertex="1">
          <mxGeometry y="57" width="94" height="55" as="geometry" />
        </mxCell>
        <mxCell id="1gM_MYu2zcnsxkpQIaez-27" value="&lt;span style=&quot;font-size: 18px;&quot;&gt;&lt;b&gt;Write&lt;/b&gt;&lt;/span&gt;&lt;div&gt;&lt;span style=&quot;font-size: 18px;&quot;&gt;&lt;b&gt;register&lt;/b&gt;&lt;/span&gt;&lt;/div&gt;" style="text;html=1;align=left;verticalAlign=middle;resizable=0;points=[];autosize=1;strokeColor=none;fillColor=none;" parent="1gM_MYu2zcnsxkpQIaez-31" vertex="1">
          <mxGeometry y="113" width="84" height="55" as="geometry" />
        </mxCell>
        <mxCell id="1gM_MYu2zcnsxkpQIaez-28" value="&lt;span style=&quot;font-size: 18px;&quot;&gt;&lt;b&gt;Write&lt;/b&gt;&lt;/span&gt;&lt;div&gt;&lt;span style=&quot;font-size: 18px;&quot;&gt;&lt;b&gt;data&lt;/b&gt;&lt;/span&gt;&lt;/div&gt;" style="text;html=1;align=left;verticalAlign=middle;resizable=0;points=[];autosize=1;strokeColor=none;fillColor=none;" parent="1gM_MYu2zcnsxkpQIaez-31" vertex="1">
          <mxGeometry x="2" y="172" width="63" height="55" as="geometry" />
        </mxCell>
        <mxCell id="1gM_MYu2zcnsxkpQIaez-29" value="&lt;span style=&quot;font-size: 18px;&quot;&gt;&lt;b&gt;Read&lt;/b&gt;&lt;/span&gt;&lt;div&gt;&lt;span style=&quot;font-size: 18px;&quot;&gt;&lt;b&gt;data&lt;/b&gt;&lt;/span&gt;&lt;span style=&quot;color: rgba(0, 0, 0, 0); font-family: monospace; font-size: 0px; background-color: initial;&quot;&gt;%3CmxGraphModel%3E%3Croot%3E%3CmxCell%20id%3D%220%22%2F%3E%3CmxCell%20id%3D%221%22%20parent%3D%220%22%2F%3E%3CmxCell%20id%3D%222%22%20value%3D%22%26lt%3Bspan%20style%3D%26quot%3Bfont-size%3A%2018px%3B%26quot%3B%26gt%3B%26lt%3Bb%26gt%3BRead%26lt%3B%2Fb%26gt%3B%26lt%3B%2Fspan%26gt%3B%26lt%3Bdiv%26gt%3B%26lt%3Bspan%20style%3D%26quot%3Bfont-size%3A%2018px%3B%26quot%3B%26gt%3B%26lt%3Bb%26gt%3Bregister1%26lt%3B%2Fb%26gt%3B%26lt%3B%2Fspan%26gt%3B%26lt%3B%2Fdiv%26gt%3B%22%20style%3D%22text%3Bhtml%3D1%3Balign%3Dleft%3BverticalAlign%3Dmiddle%3Bresizable%3D0%3Bpoints%3D%5B%5D%3Bautosize%3D1%3BstrokeColor%3Dnone%3BfillColor%3Dnone%3B%22%20vertex%3D%221%22%20parent%3D%221%22%3E%3CmxGeometry%20x%3D%22-472%22%20y%3D%22320%22%20width%3D%2294%22%20height%3D%2255%22%20as%3D%22geometry%22%2F%3E%3C%2FmxCell%3E%3C%2Froot%3E%3C%2FmxGraphModel%3E&lt;/span&gt;&lt;b style=&quot;font-size: 18px; background-color: initial;&quot;&gt;1&lt;/b&gt;&lt;/div&gt;" style="text;html=1;align=left;verticalAlign=middle;resizable=0;points=[];autosize=1;strokeColor=none;fillColor=none;" parent="1gM_MYu2zcnsxkpQIaez-31" vertex="1">
          <mxGeometry x="97" y="28.5" width="65" height="55" as="geometry" />
        </mxCell>
        <mxCell id="1gM_MYu2zcnsxkpQIaez-30" value="&lt;span style=&quot;font-size: 18px;&quot;&gt;&lt;b&gt;Read&lt;/b&gt;&lt;/span&gt;&lt;div&gt;&lt;span style=&quot;font-size: 18px;&quot;&gt;&lt;b&gt;data2&lt;/b&gt;&lt;/span&gt;&lt;/div&gt;" style="text;html=1;align=left;verticalAlign=middle;resizable=0;points=[];autosize=1;strokeColor=none;fillColor=none;" parent="1gM_MYu2zcnsxkpQIaez-31" vertex="1">
          <mxGeometry x="96" y="113" width="65" height="55" as="geometry" />
        </mxCell>
        <mxCell id="1gM_MYu2zcnsxkpQIaez-37" value="" style="group" parent="1" vertex="1" connectable="0">
          <mxGeometry x="-794" y="444" width="120" height="169" as="geometry" />
        </mxCell>
        <mxCell id="1gM_MYu2zcnsxkpQIaez-32" value="" style="rounded=0;whiteSpace=wrap;html=1;points=[[0,0,0,0,0],[0,0.18,0,0,0],[0,0.5,0,0,0],[0,0.75,0,0,0],[0,1,0,0,0],[0.25,0,0,0,0],[0.25,1,0,0,0],[0.5,0,0,0,0],[0.5,1,0,0,0],[0.75,0,0,0,0],[0.75,1,0,0,0],[1,0,0,0,0],[1,0.25,0,0,0],[1,0.5,0,0,0],[1,0.75,0,0,0],[1,1,0,0,0]];" parent="1gM_MYu2zcnsxkpQIaez-37" vertex="1">
          <mxGeometry width="120" height="165" as="geometry" />
        </mxCell>
        <mxCell id="1gM_MYu2zcnsxkpQIaez-33" value="&lt;span style=&quot;font-size: 18px;&quot;&gt;&lt;b&gt;Read&lt;/b&gt;&lt;/span&gt;&lt;div&gt;&lt;span style=&quot;font-size: 18px;&quot;&gt;&lt;b&gt;address&lt;/b&gt;&lt;/span&gt;&lt;/div&gt;" style="text;html=1;align=left;verticalAlign=middle;resizable=0;points=[];autosize=1;strokeColor=none;fillColor=none;" parent="1gM_MYu2zcnsxkpQIaez-37" vertex="1">
          <mxGeometry x="3" width="87" height="55" as="geometry" />
        </mxCell>
        <mxCell id="1gM_MYu2zcnsxkpQIaez-34" value="&lt;span style=&quot;font-size: 18px;&quot;&gt;&lt;b&gt;Instruction&lt;/b&gt;&lt;/span&gt;&lt;div&gt;&lt;span style=&quot;font-size: 18px;&quot;&gt;&lt;b&gt;memory&lt;/b&gt;&lt;/span&gt;&lt;/div&gt;" style="text;html=1;align=left;verticalAlign=middle;resizable=0;points=[];autosize=1;strokeColor=none;fillColor=none;" parent="1gM_MYu2zcnsxkpQIaez-37" vertex="1">
          <mxGeometry x="2" y="114" width="111" height="55" as="geometry" />
        </mxCell>
        <mxCell id="1gM_MYu2zcnsxkpQIaez-35" value="&lt;span style=&quot;font-size: 18px;&quot;&gt;Instruction&lt;/span&gt;&lt;div&gt;&lt;span style=&quot;font-size: 18px;&quot;&gt;[31-0]&lt;/span&gt;&lt;/div&gt;" style="text;html=1;align=right;verticalAlign=middle;resizable=0;points=[];autosize=1;strokeColor=none;fillColor=none;" parent="1gM_MYu2zcnsxkpQIaez-37" vertex="1">
          <mxGeometry x="16" y="59" width="101" height="55" as="geometry" />
        </mxCell>
        <mxCell id="1gM_MYu2zcnsxkpQIaez-40" value="" style="group" parent="1" vertex="1" connectable="0">
          <mxGeometry x="-495" y="724" width="80" height="120" as="geometry" />
        </mxCell>
        <mxCell id="1gM_MYu2zcnsxkpQIaez-38" value="" style="ellipse;whiteSpace=wrap;html=1;rotation=90;" parent="1gM_MYu2zcnsxkpQIaez-40" vertex="1">
          <mxGeometry x="-20" y="20" width="120" height="80" as="geometry" />
        </mxCell>
        <mxCell id="1gM_MYu2zcnsxkpQIaez-39" value="&lt;span style=&quot;font-size: 18px;&quot;&gt;&lt;b&gt;Imm&lt;/b&gt;&lt;/span&gt;&lt;div&gt;&lt;span style=&quot;font-size: 18px;&quot;&gt;&lt;b&gt;Gen&lt;/b&gt;&lt;/span&gt;&lt;/div&gt;" style="text;html=1;align=left;verticalAlign=middle;resizable=0;points=[];autosize=1;strokeColor=none;fillColor=none;" parent="1gM_MYu2zcnsxkpQIaez-40" vertex="1">
          <mxGeometry x="18" y="32.5" width="55" height="55" as="geometry" />
        </mxCell>
        <mxCell id="1gM_MYu2zcnsxkpQIaez-47" value="" style="group" parent="1" vertex="1" connectable="0">
          <mxGeometry x="-889" y="415" width="50" height="101" as="geometry" />
        </mxCell>
        <mxCell id="1gM_MYu2zcnsxkpQIaez-45" value="" style="rounded=0;whiteSpace=wrap;html=1;" parent="1gM_MYu2zcnsxkpQIaez-47" vertex="1">
          <mxGeometry width="40" height="101" as="geometry" />
        </mxCell>
        <mxCell id="1gM_MYu2zcnsxkpQIaez-46" value="&lt;b style=&quot;font-size: 18px;&quot;&gt;PC&lt;/b&gt;" style="text;html=1;align=left;verticalAlign=middle;resizable=0;points=[];autosize=1;strokeColor=none;fillColor=none;" parent="1gM_MYu2zcnsxkpQIaez-47" vertex="1">
          <mxGeometry x="3.5" y="31" width="43" height="34" as="geometry" />
        </mxCell>
        <mxCell id="1gM_MYu2zcnsxkpQIaez-55" value="" style="group" parent="1" vertex="1" connectable="0">
          <mxGeometry x="-575.63" y="131" width="160.63" height="275" as="geometry" />
        </mxCell>
        <mxCell id="1gM_MYu2zcnsxkpQIaez-51" value="" style="ellipse;whiteSpace=wrap;html=1;rotation=90;fillColor=#FFFFFF;strokeColor=#007FFF;" parent="1gM_MYu2zcnsxkpQIaez-55" vertex="1">
          <mxGeometry x="-72" y="95.25" width="236.75" height="84.5" as="geometry" />
        </mxCell>
        <mxCell id="1gM_MYu2zcnsxkpQIaez-62" value="" style="group" parent="1" vertex="1" connectable="0">
          <mxGeometry x="-255" y="660" width="72" height="108" as="geometry" />
        </mxCell>
        <mxCell id="1gM_MYu2zcnsxkpQIaez-60" value="" style="ellipse;whiteSpace=wrap;html=1;rotation=90;strokeColor=#007FFF;" parent="1gM_MYu2zcnsxkpQIaez-62" vertex="1">
          <mxGeometry x="-18" y="18" width="108" height="72" as="geometry" />
        </mxCell>
        <mxCell id="1gM_MYu2zcnsxkpQIaez-64" value="" style="group" parent="1" vertex="1" connectable="0">
          <mxGeometry x="-242" y="436" width="140.25" height="161" as="geometry" />
        </mxCell>
        <mxCell id="1gM_MYu2zcnsxkpQIaez-65" value="" style="shape=trapezoid;perimeter=trapezoidPerimeter;whiteSpace=wrap;html=1;fixedSize=1;rotation=90;size=40.27996826171875;" parent="1gM_MYu2zcnsxkpQIaez-64" vertex="1">
          <mxGeometry x="-20.75" y="20.75" width="161" height="119.5" as="geometry" />
        </mxCell>
        <mxCell id="1gM_MYu2zcnsxkpQIaez-66" value="&lt;div style=&quot;&quot;&gt;&lt;b style=&quot;font-size: 18px; background-color: initial;&quot;&gt;ALU&lt;/b&gt;&lt;/div&gt;" style="text;html=1;align=center;verticalAlign=middle;resizable=0;points=[];autosize=1;strokeColor=none;fillColor=none;" parent="1gM_MYu2zcnsxkpQIaez-64" vertex="1">
          <mxGeometry x="-5" y="66" width="55" height="34" as="geometry" />
        </mxCell>
        <mxCell id="1gM_MYu2zcnsxkpQIaez-68" value="&lt;div style=&quot;&quot;&gt;&lt;span style=&quot;font-size: 18px;&quot;&gt;&lt;b&gt;ALU&lt;/b&gt;&lt;/span&gt;&lt;/div&gt;&lt;div style=&quot;&quot;&gt;&lt;span style=&quot;font-size: 18px;&quot;&gt;&lt;b&gt;result&lt;/b&gt;&lt;/span&gt;&lt;/div&gt;" style="text;html=1;align=center;verticalAlign=middle;resizable=0;points=[];autosize=1;strokeColor=none;fillColor=none;" parent="1gM_MYu2zcnsxkpQIaez-64" vertex="1">
          <mxGeometry x="33" y="82" width="67" height="55" as="geometry" />
        </mxCell>
        <mxCell id="1gM_MYu2zcnsxkpQIaez-70" value="" style="group" parent="1" vertex="1" connectable="0">
          <mxGeometry x="-58" y="490" width="119" height="190" as="geometry" />
        </mxCell>
        <mxCell id="1gM_MYu2zcnsxkpQIaez-71" value="" style="rounded=0;whiteSpace=wrap;html=1;" parent="1gM_MYu2zcnsxkpQIaez-70" vertex="1">
          <mxGeometry x="-17.85" width="136.85" height="190" as="geometry" />
        </mxCell>
        <mxCell id="1gM_MYu2zcnsxkpQIaez-72" value="&lt;div&gt;&lt;span style=&quot;font-size: 18px;&quot;&gt;&lt;b&gt;address&lt;/b&gt;&lt;/span&gt;&lt;/div&gt;" style="text;html=1;align=left;verticalAlign=middle;resizable=0;points=[];autosize=1;strokeColor=none;fillColor=none;" parent="1gM_MYu2zcnsxkpQIaez-70" vertex="1">
          <mxGeometry x="-12.891666666666667" y="22.5" width="87" height="34" as="geometry" />
        </mxCell>
        <mxCell id="1gM_MYu2zcnsxkpQIaez-73" value="&lt;span style=&quot;font-size: 18px;&quot;&gt;&lt;b&gt;Wrie&lt;/b&gt;&lt;/span&gt;&lt;div&gt;&lt;span style=&quot;font-size: 18px;&quot;&gt;&lt;b&gt;data&lt;/b&gt;&lt;/span&gt;&lt;/div&gt;" style="text;html=1;align=left;verticalAlign=middle;resizable=0;points=[];autosize=1;strokeColor=none;fillColor=none;" parent="1gM_MYu2zcnsxkpQIaez-70" vertex="1">
          <mxGeometry x="-12.891666666666667" y="130" width="57" height="55" as="geometry" />
        </mxCell>
        <mxCell id="1gM_MYu2zcnsxkpQIaez-74" value="&lt;span style=&quot;font-size: 18px;&quot;&gt;&lt;b&gt;Read&lt;/b&gt;&lt;/span&gt;&lt;div&gt;&lt;span style=&quot;font-size: 18px;&quot;&gt;&lt;b&gt;data&lt;/b&gt;&lt;/span&gt;&lt;/div&gt;" style="text;html=1;align=right;verticalAlign=middle;resizable=0;points=[];autosize=1;strokeColor=none;fillColor=none;" parent="1gM_MYu2zcnsxkpQIaez-70" vertex="1">
          <mxGeometry x="53.550000000000004" y="13" width="62" height="55" as="geometry" />
        </mxCell>
        <mxCell id="1gM_MYu2zcnsxkpQIaez-76" value="&lt;span style=&quot;font-size: 18px;&quot;&gt;&lt;b&gt;Data&lt;/b&gt;&lt;/span&gt;&lt;div&gt;&lt;span style=&quot;font-size: 18px;&quot;&gt;&lt;b&gt;memory&lt;/b&gt;&lt;/span&gt;&lt;/div&gt;" style="text;html=1;align=center;verticalAlign=middle;resizable=0;points=[];autosize=1;strokeColor=none;fillColor=none;" parent="1gM_MYu2zcnsxkpQIaez-70" vertex="1">
          <mxGeometry x="40.55000000000001" y="135" width="88" height="55" as="geometry" />
        </mxCell>
        <mxCell id="1gM_MYu2zcnsxkpQIaez-81" value="" style="endArrow=classic;html=1;rounded=0;exitX=1;exitY=0.5;exitDx=0;exitDy=0;entryX=-0.043;entryY=0.4;entryDx=0;entryDy=0;entryPerimeter=0;" parent="1" source="1gM_MYu2zcnsxkpQIaez-45" target="1gM_MYu2zcnsxkpQIaez-33" edge="1">
          <mxGeometry width="50" height="50" relative="1" as="geometry">
            <mxPoint x="-27" y="340" as="sourcePoint" />
            <mxPoint x="23" y="290" as="targetPoint" />
          </mxGeometry>
        </mxCell>
        <mxCell id="1gM_MYu2zcnsxkpQIaez-83" value="" style="endArrow=classic;html=1;rounded=0;entryX=0.5;entryY=1;entryDx=0;entryDy=0;" parent="1" edge="1">
          <mxGeometry width="50" height="50" relative="1" as="geometry">
            <mxPoint x="-809" y="99.78" as="sourcePoint" />
            <mxPoint x="-713.4999999999998" y="99.00000000000003" as="targetPoint" />
          </mxGeometry>
        </mxCell>
        <mxCell id="1gM_MYu2zcnsxkpQIaez-85" value="&lt;span style=&quot;font-size: 18px;&quot;&gt;&lt;b&gt;4&lt;/b&gt;&lt;/span&gt;" style="text;html=1;align=left;verticalAlign=middle;resizable=0;points=[];autosize=1;strokeColor=none;fillColor=none;" parent="1" vertex="1">
          <mxGeometry x="-798" y="74" width="28" height="34" as="geometry" />
        </mxCell>
        <mxCell id="1gM_MYu2zcnsxkpQIaez-91" value="" style="endArrow=classic;html=1;rounded=0;entryX=0.25;entryY=1;entryDx=0;entryDy=0;" parent="1" target="ywD8RWNssoRgn9kZ_ETu-80" edge="1">
          <mxGeometry width="50" height="50" relative="1" as="geometry">
            <mxPoint x="-831" y="466" as="sourcePoint" />
            <mxPoint x="-739" y="-16" as="targetPoint" />
            <Array as="points">
              <mxPoint x="-831" y="47" />
            </Array>
          </mxGeometry>
        </mxCell>
        <mxCell id="1gM_MYu2zcnsxkpQIaez-93" value="" style="group" parent="1" vertex="1" connectable="0">
          <mxGeometry x="-303" y="543" width="38" height="83" as="geometry" />
        </mxCell>
        <mxCell id="1gM_MYu2zcnsxkpQIaez-94" value="" style="rounded=1;whiteSpace=wrap;html=1;arcSize=50;" parent="1gM_MYu2zcnsxkpQIaez-93" vertex="1">
          <mxGeometry width="16.286311619718308" height="83" as="geometry" />
        </mxCell>
        <mxCell id="ywD8RWNssoRgn9kZ_ETu-95" value="&lt;span style=&quot;font-size: 18px;&quot;&gt;&lt;b&gt;1&lt;/b&gt;&lt;/span&gt;" style="text;html=1;align=left;verticalAlign=middle;resizable=0;points=[];autosize=1;strokeColor=none;fillColor=none;" parent="1gM_MYu2zcnsxkpQIaez-93" vertex="1">
          <mxGeometry x="0.9959987887427504" y="49" width="28" height="34" as="geometry" />
        </mxCell>
        <mxCell id="ywD8RWNssoRgn9kZ_ETu-94" value="&lt;span style=&quot;font-size: 18px;&quot;&gt;&lt;b&gt;0&lt;/b&gt;&lt;/span&gt;" style="text;html=1;align=left;verticalAlign=middle;resizable=0;points=[];autosize=1;strokeColor=none;fillColor=none;" parent="1gM_MYu2zcnsxkpQIaez-93" vertex="1">
          <mxGeometry x="1.9959987887427246" width="28" height="34" as="geometry" />
        </mxCell>
        <mxCell id="1gM_MYu2zcnsxkpQIaez-97" value="" style="endArrow=none;html=1;rounded=0;" parent="1" edge="1">
          <mxGeometry width="50" height="50" relative="1" as="geometry">
            <mxPoint x="-646" y="780" as="sourcePoint" />
            <mxPoint x="-646" y="261" as="targetPoint" />
          </mxGeometry>
        </mxCell>
        <mxCell id="1gM_MYu2zcnsxkpQIaez-98" value="" style="endArrow=classic;html=1;rounded=0;entryX=0.471;entryY=0.989;entryDx=0;entryDy=0;entryPerimeter=0;" parent="1" target="1gM_MYu2zcnsxkpQIaez-51" edge="1">
          <mxGeometry width="50" height="50" relative="1" as="geometry">
            <mxPoint x="-646" y="262" as="sourcePoint" />
            <mxPoint x="15" y="473" as="targetPoint" />
          </mxGeometry>
        </mxCell>
        <mxCell id="1gM_MYu2zcnsxkpQIaez-100" value="" style="endArrow=classic;html=1;rounded=0;entryX=-0.027;entryY=0.614;entryDx=0;entryDy=0;entryPerimeter=0;" parent="1" target="1gM_MYu2zcnsxkpQIaez-23" edge="1">
          <mxGeometry width="50" height="50" relative="1" as="geometry">
            <mxPoint x="-647" y="450" as="sourcePoint" />
            <mxPoint x="-547" y="451" as="targetPoint" />
          </mxGeometry>
        </mxCell>
        <mxCell id="1gM_MYu2zcnsxkpQIaez-101" value="" style="endArrow=classic;html=1;rounded=0;entryX=-0.025;entryY=0.582;entryDx=0;entryDy=0;entryPerimeter=0;" parent="1" edge="1">
          <mxGeometry width="50" height="50" relative="1" as="geometry">
            <mxPoint x="-644.9" y="499" as="sourcePoint" />
            <mxPoint x="-525.9999999999999" y="499.5100000000002" as="targetPoint" />
          </mxGeometry>
        </mxCell>
        <mxCell id="1gM_MYu2zcnsxkpQIaez-102" value="" style="endArrow=classic;html=1;rounded=0;entryX=0.472;entryY=0.994;entryDx=0;entryDy=0;entryPerimeter=0;" parent="1" target="1gM_MYu2zcnsxkpQIaez-38" edge="1">
          <mxGeometry width="50" height="50" relative="1" as="geometry">
            <mxPoint x="-646" y="781" as="sourcePoint" />
            <mxPoint x="-500" y="705" as="targetPoint" />
          </mxGeometry>
        </mxCell>
        <mxCell id="1gM_MYu2zcnsxkpQIaez-103" value="" style="endArrow=classic;html=1;rounded=0;entryX=-0.025;entryY=0.582;entryDx=0;entryDy=0;entryPerimeter=0;" parent="1" edge="1">
          <mxGeometry width="50" height="50" relative="1" as="geometry">
            <mxPoint x="-644.9" y="556" as="sourcePoint" />
            <mxPoint x="-525.9999999999999" y="556.5100000000002" as="targetPoint" />
          </mxGeometry>
        </mxCell>
        <mxCell id="1gM_MYu2zcnsxkpQIaez-106" value="" style="endArrow=classic;html=1;rounded=0;edgeStyle=elbowEdgeStyle;exitX=0.5;exitY=0;exitDx=0;exitDy=0;entryX=0.75;entryY=1;entryDx=0;entryDy=0;" parent="1" source="1gM_MYu2zcnsxkpQIaez-38" target="ywD8RWNssoRgn9kZ_ETu-76" edge="1">
          <mxGeometry width="50" height="50" relative="1" as="geometry">
            <mxPoint x="-417" y="709" as="sourcePoint" />
            <mxPoint x="-296.1999999999998" y="185.5" as="targetPoint" />
            <Array as="points">
              <mxPoint x="-340" y="446" />
            </Array>
          </mxGeometry>
        </mxCell>
        <mxCell id="1gM_MYu2zcnsxkpQIaez-107" value="" style="endArrow=classic;html=1;rounded=0;exitX=0.5;exitY=0;exitDx=0;exitDy=0;entryX=-0.015;entryY=0.532;entryDx=0;entryDy=0;entryPerimeter=0;" parent="1" source="ywD8RWNssoRgn9kZ_ETu-76" edge="1">
          <mxGeometry width="50" height="50" relative="1" as="geometry">
            <mxPoint x="-88.00200000000004" y="145.002" as="sourcePoint" />
            <mxPoint x="126.38500000000022" y="153.9559999999999" as="targetPoint" />
          </mxGeometry>
        </mxCell>
        <mxCell id="1gM_MYu2zcnsxkpQIaez-108" value="" style="endArrow=classic;html=1;rounded=0;entryX=0.01;entryY=0.179;entryDx=0;entryDy=0;entryPerimeter=0;exitX=0.5;exitY=0;exitDx=0;exitDy=0;" parent="1" source="ywD8RWNssoRgn9kZ_ETu-80" edge="1">
          <mxGeometry width="50" height="50" relative="1" as="geometry">
            <mxPoint x="-638" y="60" as="sourcePoint" />
            <mxPoint x="127.41000000000031" y="71.70699999999988" as="targetPoint" />
          </mxGeometry>
        </mxCell>
        <mxCell id="ywD8RWNssoRgn9kZ_ETu-1" value="" style="endArrow=classic;html=1;rounded=0;exitX=1.006;exitY=0.636;exitDx=0;exitDy=0;exitPerimeter=0;entryX=0.016;entryY=0.185;entryDx=0;entryDy=0;entryPerimeter=0;" parent="1" source="1gM_MYu2zcnsxkpQIaez-19" target="1gM_MYu2zcnsxkpQIaez-94" edge="1">
          <mxGeometry width="50" height="50" relative="1" as="geometry">
            <mxPoint x="-340" y="559" as="sourcePoint" />
            <mxPoint x="-307" y="559" as="targetPoint" />
          </mxGeometry>
        </mxCell>
        <mxCell id="ywD8RWNssoRgn9kZ_ETu-2" value="" style="endArrow=classic;html=1;rounded=0;entryX=0.012;entryY=0.805;entryDx=0;entryDy=0;entryPerimeter=0;" parent="1" target="1gM_MYu2zcnsxkpQIaez-94" edge="1">
          <mxGeometry width="50" height="50" relative="1" as="geometry">
            <mxPoint x="-339" y="610" as="sourcePoint" />
            <mxPoint x="-310" y="623" as="targetPoint" />
          </mxGeometry>
        </mxCell>
        <mxCell id="ywD8RWNssoRgn9kZ_ETu-3" value="" style="endArrow=classic;html=1;rounded=0;entryX=0.869;entryY=0.998;entryDx=0;entryDy=0;entryPerimeter=0;exitX=0.985;exitY=0.402;exitDx=0;exitDy=0;exitPerimeter=0;" parent="1" source="1gM_MYu2zcnsxkpQIaez-94" target="1gM_MYu2zcnsxkpQIaez-65" edge="1">
          <mxGeometry width="50" height="50" relative="1" as="geometry">
            <mxPoint x="-213" y="610" as="sourcePoint" />
            <mxPoint x="-154" y="569" as="targetPoint" />
          </mxGeometry>
        </mxCell>
        <mxCell id="ywD8RWNssoRgn9kZ_ETu-4" value="" style="endArrow=classic;html=1;rounded=0;exitX=1;exitY=0.25;exitDx=0;exitDy=0;entryX=0.25;entryY=1;entryDx=0;entryDy=0;" parent="1" source="1gM_MYu2zcnsxkpQIaez-19" target="1gM_MYu2zcnsxkpQIaez-65" edge="1">
          <mxGeometry width="50" height="50" relative="1" as="geometry">
            <mxPoint x="-303" y="438" as="sourcePoint" />
            <mxPoint x="-145" y="404" as="targetPoint" />
          </mxGeometry>
        </mxCell>
        <mxCell id="ywD8RWNssoRgn9kZ_ETu-5" value="" style="endArrow=classic;html=1;rounded=0;entryX=-0.046;entryY=0.643;entryDx=0;entryDy=0;entryPerimeter=0;exitX=0.607;exitY=0.003;exitDx=0;exitDy=0;exitPerimeter=0;" parent="1" source="1gM_MYu2zcnsxkpQIaez-65" target="1gM_MYu2zcnsxkpQIaez-72" edge="1">
          <mxGeometry width="50" height="50" relative="1" as="geometry">
            <mxPoint x="-126" y="534" as="sourcePoint" />
            <mxPoint x="-85" y="534" as="targetPoint" />
          </mxGeometry>
        </mxCell>
        <mxCell id="ywD8RWNssoRgn9kZ_ETu-6" value="" style="endArrow=classic;html=1;rounded=0;" parent="1" edge="1">
          <mxGeometry width="50" height="50" relative="1" as="geometry">
            <mxPoint x="-364" y="559" as="sourcePoint" />
            <mxPoint x="-80" y="647" as="targetPoint" />
            <Array as="points">
              <mxPoint x="-364" y="647" />
            </Array>
          </mxGeometry>
        </mxCell>
        <mxCell id="ywD8RWNssoRgn9kZ_ETu-8" value="" style="endArrow=classic;html=1;rounded=0;entryX=0.5;entryY=1;entryDx=0;entryDy=0;" parent="1" target="1gM_MYu2zcnsxkpQIaez-60" edge="1">
          <mxGeometry width="50" height="50" relative="1" as="geometry">
            <mxPoint x="-528" y="780" as="sourcePoint" />
            <mxPoint x="-291" y="712" as="targetPoint" />
            <Array as="points">
              <mxPoint x="-528" y="745" />
              <mxPoint x="-528" y="715" />
            </Array>
          </mxGeometry>
        </mxCell>
        <mxCell id="ywD8RWNssoRgn9kZ_ETu-14" value="" style="endArrow=classic;html=1;rounded=0;entryX=0.031;entryY=0.077;entryDx=0;entryDy=0;entryPerimeter=0;" parent="1" target="ywD8RWNssoRgn9kZ_ETu-41" edge="1">
          <mxGeometry width="50" height="50" relative="1" as="geometry">
            <mxPoint x="62" y="532" as="sourcePoint" />
            <mxPoint x="202" y="532.7819999999999" as="targetPoint" />
          </mxGeometry>
        </mxCell>
        <mxCell id="ywD8RWNssoRgn9kZ_ETu-16" value="" style="endArrow=classic;html=1;rounded=0;entryX=0.006;entryY=0.269;entryDx=0;entryDy=0;entryPerimeter=0;" parent="1" target="ywD8RWNssoRgn9kZ_ETu-41" edge="1">
          <mxGeometry width="50" height="50" relative="1" as="geometry">
            <mxPoint x="-104" y="534" as="sourcePoint" />
            <mxPoint x="202" y="582.25" as="targetPoint" />
            <Array as="points">
              <mxPoint x="-104" y="692" />
              <mxPoint x="79" y="692" />
              <mxPoint x="79" y="567" />
            </Array>
          </mxGeometry>
        </mxCell>
        <mxCell id="ywD8RWNssoRgn9kZ_ETu-17" value="" style="endArrow=classic;html=1;rounded=0;entryX=0.004;entryY=0.873;entryDx=0;entryDy=0;entryPerimeter=0;exitX=0.985;exitY=0.486;exitDx=0;exitDy=0;exitPerimeter=0;" parent="1" source="ywD8RWNssoRgn9kZ_ETu-41" target="1gM_MYu2zcnsxkpQIaez-19" edge="1">
          <mxGeometry width="50" height="50" relative="1" as="geometry">
            <mxPoint x="249.94594594594582" y="606.3898977567526" as="sourcePoint" />
            <mxPoint x="-558" y="605" as="targetPoint" />
            <Array as="points">
              <mxPoint x="319" y="606" />
              <mxPoint x="319" y="924" />
              <mxPoint x="-558" y="931" />
              <mxPoint x="-558" y="610" />
            </Array>
          </mxGeometry>
        </mxCell>
        <mxCell id="ywD8RWNssoRgn9kZ_ETu-21" value="" style="endArrow=classic;html=1;rounded=0;entryX=0;entryY=0.5;entryDx=0;entryDy=0;exitX=1;exitY=0.5;exitDx=0;exitDy=0;" parent="1" source="ywD8RWNssoRgn9kZ_ETu-135" target="1gM_MYu2zcnsxkpQIaez-45" edge="1">
          <mxGeometry width="50" height="50" relative="1" as="geometry">
            <mxPoint x="270" y="170" as="sourcePoint" />
            <mxPoint x="-890" y="439" as="targetPoint" />
            <Array as="points">
              <mxPoint x="270" y="151" />
              <mxPoint x="270" />
              <mxPoint x="-920" />
              <mxPoint x="-920" y="466" />
            </Array>
          </mxGeometry>
        </mxCell>
        <mxCell id="ywD8RWNssoRgn9kZ_ETu-23" value="" style="endArrow=classic;html=1;rounded=0;entryX=0.25;entryY=1;entryDx=0;entryDy=0;" parent="1" target="ywD8RWNssoRgn9kZ_ETu-76" edge="1">
          <mxGeometry width="50" height="50" relative="1" as="geometry">
            <mxPoint x="-831" y="130" as="sourcePoint" />
            <mxPoint x="-255" y="128" as="targetPoint" />
            <Array as="points" />
          </mxGeometry>
        </mxCell>
        <mxCell id="ywD8RWNssoRgn9kZ_ETu-24" value="" style="endArrow=classic;html=1;rounded=0;exitX=0.998;exitY=0.533;exitDx=0;exitDy=0;exitPerimeter=0;" parent="1" source="1gM_MYu2zcnsxkpQIaez-32" edge="1">
          <mxGeometry width="50" height="50" relative="1" as="geometry">
            <mxPoint x="-573" y="529" as="sourcePoint" />
            <mxPoint x="-646" y="532" as="targetPoint" />
          </mxGeometry>
        </mxCell>
        <mxCell id="ywD8RWNssoRgn9kZ_ETu-48" value="" style="group" parent="1" vertex="1" connectable="0">
          <mxGeometry x="203" y="516" width="29" height="182" as="geometry" />
        </mxCell>
        <mxCell id="ywD8RWNssoRgn9kZ_ETu-41" value="" style="rounded=1;whiteSpace=wrap;html=1;arcSize=50;" parent="ywD8RWNssoRgn9kZ_ETu-48" vertex="1">
          <mxGeometry y="3" width="17.755102040816325" height="179" as="geometry" />
        </mxCell>
        <mxCell id="ywD8RWNssoRgn9kZ_ETu-43" value="&lt;span style=&quot;font-size: 18px;&quot;&gt;&lt;b&gt;0&lt;/b&gt;&lt;/span&gt;" style="text;html=1;align=left;verticalAlign=middle;resizable=0;points=[];autosize=1;strokeColor=none;fillColor=none;" parent="ywD8RWNssoRgn9kZ_ETu-48" vertex="1">
          <mxGeometry x="3.001387663173378" y="5" width="28" height="34" as="geometry" />
        </mxCell>
        <mxCell id="ywD8RWNssoRgn9kZ_ETu-44" value="&lt;span style=&quot;font-size: 18px;&quot;&gt;&lt;b&gt;1&lt;/b&gt;&lt;/span&gt;" style="text;html=1;align=left;verticalAlign=middle;resizable=0;points=[];autosize=1;strokeColor=none;fillColor=none;" parent="ywD8RWNssoRgn9kZ_ETu-48" vertex="1">
          <mxGeometry x="3.001387663173378" y="33" width="28" height="34" as="geometry" />
        </mxCell>
        <mxCell id="ywD8RWNssoRgn9kZ_ETu-45" value="&lt;span style=&quot;font-size: 18px;&quot;&gt;&lt;b&gt;3&lt;/b&gt;&lt;/span&gt;" style="text;html=1;align=left;verticalAlign=middle;resizable=0;points=[];autosize=1;strokeColor=none;fillColor=none;" parent="ywD8RWNssoRgn9kZ_ETu-48" vertex="1">
          <mxGeometry x="4.185061132561133" y="105" width="28" height="34" as="geometry" />
        </mxCell>
        <mxCell id="ywD8RWNssoRgn9kZ_ETu-46" value="&lt;span style=&quot;font-size: 18px;&quot;&gt;&lt;b&gt;2&lt;/b&gt;&lt;/span&gt;" style="text;html=1;align=left;verticalAlign=middle;resizable=0;points=[];autosize=1;strokeColor=none;fillColor=none;" parent="ywD8RWNssoRgn9kZ_ETu-48" vertex="1">
          <mxGeometry x="3.001387663173378" y="69" width="28" height="34" as="geometry" />
        </mxCell>
        <mxCell id="ywD8RWNssoRgn9kZ_ETu-47" value="&lt;span style=&quot;font-size: 18px;&quot;&gt;&lt;b&gt;4&lt;/b&gt;&lt;/span&gt;" style="text;html=1;align=left;verticalAlign=middle;resizable=0;points=[];autosize=1;strokeColor=none;fillColor=none;" parent="ywD8RWNssoRgn9kZ_ETu-48" vertex="1">
          <mxGeometry x="4.185061132561129" y="135" width="28" height="34" as="geometry" />
        </mxCell>
        <mxCell id="ywD8RWNssoRgn9kZ_ETu-49" value="" style="endArrow=classic;html=1;rounded=0;entryX=0.022;entryY=0.466;entryDx=0;entryDy=0;entryPerimeter=0;" parent="1" target="ywD8RWNssoRgn9kZ_ETu-41" edge="1">
          <mxGeometry width="50" height="50" relative="1" as="geometry">
            <mxPoint x="-136" y="71" as="sourcePoint" />
            <mxPoint x="168" y="623" as="targetPoint" />
            <Array as="points">
              <mxPoint x="-131" y="343" />
              <mxPoint x="168" y="343" />
              <mxPoint x="168" y="602" />
            </Array>
          </mxGeometry>
        </mxCell>
        <mxCell id="ywD8RWNssoRgn9kZ_ETu-52" value="" style="group" parent="1" vertex="1" connectable="0">
          <mxGeometry x="-82" y="754" width="73" height="56" as="geometry" />
        </mxCell>
        <mxCell id="ywD8RWNssoRgn9kZ_ETu-50" value="" style="ellipse;whiteSpace=wrap;html=1;" parent="ywD8RWNssoRgn9kZ_ETu-52" vertex="1">
          <mxGeometry width="73" height="56" as="geometry" />
        </mxCell>
        <mxCell id="ywD8RWNssoRgn9kZ_ETu-51" value="&lt;span style=&quot;font-size: 18px;&quot;&gt;&lt;b&gt;&amp;lt;&amp;lt; 12&lt;/b&gt;&lt;/span&gt;" style="text;html=1;align=center;verticalAlign=middle;resizable=0;points=[];autosize=1;strokeColor=none;fillColor=none;" parent="ywD8RWNssoRgn9kZ_ETu-52" vertex="1">
          <mxGeometry x="7.609999999999999" y="13" width="64" height="34" as="geometry" />
        </mxCell>
        <mxCell id="ywD8RWNssoRgn9kZ_ETu-53" value="" style="endArrow=classic;html=1;rounded=0;entryX=0;entryY=0.5;entryDx=0;entryDy=0;" parent="1" target="ywD8RWNssoRgn9kZ_ETu-50" edge="1">
          <mxGeometry width="50" height="50" relative="1" as="geometry">
            <mxPoint x="-339" y="784" as="sourcePoint" />
            <mxPoint x="-107" y="744" as="targetPoint" />
          </mxGeometry>
        </mxCell>
        <mxCell id="ywD8RWNssoRgn9kZ_ETu-54" value="" style="group" parent="1" vertex="1" connectable="0">
          <mxGeometry x="78" y="791" width="50.99970588235294" height="115" as="geometry" />
        </mxCell>
        <mxCell id="ywD8RWNssoRgn9kZ_ETu-55" value="" style="shape=trapezoid;perimeter=trapezoidPerimeter;whiteSpace=wrap;html=1;fixedSize=1;rotation=90;size=26.01207957548243;" parent="ywD8RWNssoRgn9kZ_ETu-54" vertex="1">
          <mxGeometry x="-30.77205882352941" y="33.214285714285715" width="106.54411764705883" height="48.57142857142857" as="geometry" />
        </mxCell>
        <mxCell id="ywD8RWNssoRgn9kZ_ETu-56" value="&lt;b&gt;&lt;font style=&quot;font-size: 18px;&quot;&gt;ADD&lt;/font&gt;&lt;/b&gt;" style="text;html=1;align=center;verticalAlign=middle;resizable=0;points=[];autosize=1;strokeColor=none;fillColor=none;" parent="ywD8RWNssoRgn9kZ_ETu-54" vertex="1">
          <mxGeometry x="-6.000294117647059" y="36.997142857142876" width="57" height="34" as="geometry" />
        </mxCell>
        <mxCell id="ywD8RWNssoRgn9kZ_ETu-57" value="" style="endArrow=classic;html=1;rounded=0;exitX=1;exitY=0.5;exitDx=0;exitDy=0;entryX=0.035;entryY=0.654;entryDx=0;entryDy=0;entryPerimeter=0;" parent="1" source="ywD8RWNssoRgn9kZ_ETu-50" target="ywD8RWNssoRgn9kZ_ETu-41" edge="1">
          <mxGeometry width="50" height="50" relative="1" as="geometry">
            <mxPoint x="34" y="771" as="sourcePoint" />
            <mxPoint x="186" y="639" as="targetPoint" />
            <Array as="points">
              <mxPoint x="100" y="782" />
              <mxPoint x="102" y="636" />
            </Array>
          </mxGeometry>
        </mxCell>
        <mxCell id="ywD8RWNssoRgn9kZ_ETu-58" value="" style="endArrow=classic;html=1;rounded=0;entryX=0.75;entryY=1;entryDx=0;entryDy=0;" parent="1" target="ywD8RWNssoRgn9kZ_ETu-55" edge="1">
          <mxGeometry width="50" height="50" relative="1" as="geometry">
            <mxPoint x="-831" y="464" as="sourcePoint" />
            <mxPoint x="73" y="878" as="targetPoint" />
            <Array as="points">
              <mxPoint x="-831" y="879" />
            </Array>
          </mxGeometry>
        </mxCell>
        <mxCell id="ywD8RWNssoRgn9kZ_ETu-59" value="" style="endArrow=classic;html=1;rounded=0;entryX=0.25;entryY=1;entryDx=0;entryDy=0;" parent="1" target="ywD8RWNssoRgn9kZ_ETu-55" edge="1">
          <mxGeometry width="50" height="50" relative="1" as="geometry">
            <mxPoint x="37" y="782" as="sourcePoint" />
            <mxPoint x="37" y="844" as="targetPoint" />
            <Array as="points">
              <mxPoint x="37" y="822" />
            </Array>
          </mxGeometry>
        </mxCell>
        <mxCell id="ywD8RWNssoRgn9kZ_ETu-60" value="" style="endArrow=classic;html=1;rounded=0;exitX=0.5;exitY=0;exitDx=0;exitDy=0;entryX=-0.006;entryY=0.839;entryDx=0;entryDy=0;entryPerimeter=0;" parent="1" source="ywD8RWNssoRgn9kZ_ETu-55" target="ywD8RWNssoRgn9kZ_ETu-41" edge="1">
          <mxGeometry width="50" height="50" relative="1" as="geometry">
            <mxPoint x="126" y="853" as="sourcePoint" />
            <mxPoint x="201" y="680" as="targetPoint" />
            <Array as="points">
              <mxPoint x="144" y="849" />
              <mxPoint x="144" y="670" />
            </Array>
          </mxGeometry>
        </mxCell>
        <mxCell id="ywD8RWNssoRgn9kZ_ETu-65" value="" style="group" parent="1" vertex="1" connectable="0">
          <mxGeometry x="-216" y="213" width="82.52000000000001" height="123" as="geometry" />
        </mxCell>
        <mxCell id="ywD8RWNssoRgn9kZ_ETu-66" value="" style="shape=trapezoid;perimeter=trapezoidPerimeter;whiteSpace=wrap;html=1;fixedSize=1;rotation=90;size=21.011743882123056;" parent="ywD8RWNssoRgn9kZ_ETu-65" vertex="1">
          <mxGeometry x="-20.04" y="30.48" width="102.56" height="41.48" as="geometry" />
        </mxCell>
        <mxCell id="ywD8RWNssoRgn9kZ_ETu-67" value="&lt;b&gt;&lt;font style=&quot;font-size: 18px;&quot;&gt;ADD&lt;/font&gt;&lt;/b&gt;" style="text;html=1;align=center;verticalAlign=middle;resizable=0;points=[];autosize=1;strokeColor=none;fillColor=none;" parent="ywD8RWNssoRgn9kZ_ETu-65" vertex="1">
          <mxGeometry x="2.3758823529411757" y="30.48242236024845" width="57" height="34" as="geometry" />
        </mxCell>
        <mxCell id="ywD8RWNssoRgn9kZ_ETu-68" value="" style="endArrow=classic;html=1;rounded=0;entryX=0.75;entryY=1;entryDx=0;entryDy=0;" parent="1" target="ywD8RWNssoRgn9kZ_ETu-66" edge="1">
          <mxGeometry width="50" height="50" relative="1" as="geometry">
            <mxPoint x="-298" y="477" as="sourcePoint" />
            <mxPoint x="-287" y="349" as="targetPoint" />
            <Array as="points">
              <mxPoint x="-298" y="292" />
            </Array>
          </mxGeometry>
        </mxCell>
        <mxCell id="ywD8RWNssoRgn9kZ_ETu-69" value="" style="endArrow=classic;html=1;rounded=0;entryX=0.25;entryY=1;entryDx=0;entryDy=0;" parent="1" target="ywD8RWNssoRgn9kZ_ETu-66" edge="1">
          <mxGeometry width="50" height="50" relative="1" as="geometry">
            <mxPoint x="-340" y="240" as="sourcePoint" />
            <mxPoint x="-216" y="285" as="targetPoint" />
          </mxGeometry>
        </mxCell>
        <mxCell id="ywD8RWNssoRgn9kZ_ETu-75" value="" style="group" parent="1" vertex="1" connectable="0">
          <mxGeometry x="-217" y="104" width="82.52000000000001" height="123" as="geometry" />
        </mxCell>
        <mxCell id="ywD8RWNssoRgn9kZ_ETu-76" value="" style="shape=trapezoid;perimeter=trapezoidPerimeter;whiteSpace=wrap;html=1;fixedSize=1;rotation=90;size=21.011743882123056;" parent="ywD8RWNssoRgn9kZ_ETu-75" vertex="1">
          <mxGeometry x="-20.04" y="30.48" width="102.56" height="41.48" as="geometry" />
        </mxCell>
        <mxCell id="ywD8RWNssoRgn9kZ_ETu-77" value="&lt;b&gt;&lt;font style=&quot;font-size: 18px;&quot;&gt;ADD&lt;/font&gt;&lt;/b&gt;" style="text;html=1;align=center;verticalAlign=middle;resizable=0;points=[];autosize=1;strokeColor=none;fillColor=none;" parent="ywD8RWNssoRgn9kZ_ETu-75" vertex="1">
          <mxGeometry x="3.8658823529411563" y="34.22242236024846" width="57" height="34" as="geometry" />
        </mxCell>
        <mxCell id="ywD8RWNssoRgn9kZ_ETu-78" value="" style="endArrow=classic;html=1;rounded=0;exitX=0.5;exitY=0;exitDx=0;exitDy=0;entryX=-0.022;entryY=0.873;entryDx=0;entryDy=0;entryPerimeter=0;" parent="1" source="ywD8RWNssoRgn9kZ_ETu-66" target="ywD8RWNssoRgn9kZ_ETu-135" edge="1">
          <mxGeometry width="50" height="50" relative="1" as="geometry">
            <mxPoint x="-38" y="243" as="sourcePoint" />
            <mxPoint x="-27" y="183" as="targetPoint" />
            <Array as="points">
              <mxPoint x="-27" y="264" />
              <mxPoint x="-27" y="194" />
            </Array>
          </mxGeometry>
        </mxCell>
        <mxCell id="ywD8RWNssoRgn9kZ_ETu-79" value="" style="group" parent="1" vertex="1" connectable="0">
          <mxGeometry x="-724" y="21" width="82.52000000000001" height="123" as="geometry" />
        </mxCell>
        <mxCell id="ywD8RWNssoRgn9kZ_ETu-80" value="" style="shape=trapezoid;perimeter=trapezoidPerimeter;whiteSpace=wrap;html=1;fixedSize=1;rotation=90;size=21.011743882123056;" parent="ywD8RWNssoRgn9kZ_ETu-79" vertex="1">
          <mxGeometry x="-20.04" y="30.48" width="102.56" height="41.48" as="geometry" />
        </mxCell>
        <mxCell id="ywD8RWNssoRgn9kZ_ETu-81" value="&lt;b&gt;&lt;font style=&quot;font-size: 18px;&quot;&gt;ADD&lt;/font&gt;&lt;/b&gt;" style="text;html=1;align=center;verticalAlign=middle;resizable=0;points=[];autosize=1;strokeColor=none;fillColor=none;" parent="ywD8RWNssoRgn9kZ_ETu-79" vertex="1">
          <mxGeometry x="2.7358823529411893" y="34.22242236024846" width="57" height="34" as="geometry" />
        </mxCell>
        <mxCell id="ywD8RWNssoRgn9kZ_ETu-91" value="" style="endArrow=classic;html=1;rounded=0;strokeColor=#007FFF;entryX=0.101;entryY=0.009;entryDx=0;entryDy=0;entryPerimeter=0;" parent="1" target="1gM_MYu2zcnsxkpQIaez-71" edge="1">
          <mxGeometry width="50" height="50" relative="1" as="geometry">
            <mxPoint x="-62" y="411" as="sourcePoint" />
            <mxPoint x="-4" y="496" as="targetPoint" />
          </mxGeometry>
        </mxCell>
        <mxCell id="ywD8RWNssoRgn9kZ_ETu-107" value="" style="endArrow=classic;html=1;rounded=0;strokeColor=#007FFF;entryX=0.5;entryY=1;entryDx=0;entryDy=0;" parent="1" target="1gM_MYu2zcnsxkpQIaez-71" edge="1">
          <mxGeometry width="50" height="50" relative="1" as="geometry">
            <mxPoint x="-7" y="719" as="sourcePoint" />
            <mxPoint x="-28" y="684" as="targetPoint" />
          </mxGeometry>
        </mxCell>
        <mxCell id="ywD8RWNssoRgn9kZ_ETu-108" value="" style="endArrow=classic;html=1;rounded=0;strokeColor=#007FFF;entryX=0.905;entryY=0.005;entryDx=0;entryDy=0;entryPerimeter=0;" parent="1" target="1gM_MYu2zcnsxkpQIaez-71" edge="1">
          <mxGeometry width="50" height="50" relative="1" as="geometry">
            <mxPoint x="48" y="408" as="sourcePoint" />
            <mxPoint x="3" y="500" as="targetPoint" />
          </mxGeometry>
        </mxCell>
        <mxCell id="ywD8RWNssoRgn9kZ_ETu-109" value="" style="endArrow=classic;html=1;rounded=0;strokeColor=#007FFF;exitX=0.5;exitY=0;exitDx=0;exitDy=0;entryX=1;entryY=0.25;entryDx=0;entryDy=0;" parent="1" source="1gM_MYu2zcnsxkpQIaez-60" target="1gM_MYu2zcnsxkpQIaez-65" edge="1">
          <mxGeometry width="50" height="50" relative="1" as="geometry">
            <mxPoint x="-45" y="423" as="sourcePoint" />
            <mxPoint x="-131" y="714" as="targetPoint" />
            <Array as="points">
              <mxPoint x="-160" y="714" />
            </Array>
          </mxGeometry>
        </mxCell>
        <mxCell id="ywD8RWNssoRgn9kZ_ETu-110" value="" style="endArrow=classic;html=1;rounded=0;strokeColor=#007FFF;entryX=0.181;entryY=0.006;entryDx=0;entryDy=0;entryPerimeter=0;" parent="1" target="ywD8RWNssoRgn9kZ_ETu-43" edge="1">
          <mxGeometry width="50" height="50" relative="1" as="geometry">
            <mxPoint x="211" y="430" as="sourcePoint" />
            <mxPoint x="52" y="502" as="targetPoint" />
          </mxGeometry>
        </mxCell>
        <mxCell id="ywD8RWNssoRgn9kZ_ETu-111" value="" style="endArrow=classic;html=1;rounded=0;strokeColor=#007FFF;entryX=0.5;entryY=1;entryDx=0;entryDy=0;" parent="1" target="1gM_MYu2zcnsxkpQIaez-19" edge="1">
          <mxGeometry width="50" height="50" relative="1" as="geometry">
            <mxPoint x="-452" y="674" as="sourcePoint" />
            <mxPoint x="221" y="531" as="targetPoint" />
          </mxGeometry>
        </mxCell>
        <mxCell id="ywD8RWNssoRgn9kZ_ETu-112" value="" style="endArrow=classic;html=1;rounded=0;strokeColor=#000000;exitX=1;exitY=0.5;exitDx=0;exitDy=0;" parent="1" source="ywD8RWNssoRgn9kZ_ETu-85" edge="1">
          <mxGeometry width="50" height="50" relative="1" as="geometry">
            <mxPoint x="138" y="290" as="sourcePoint" />
            <mxPoint x="208" y="115" as="targetPoint" />
          </mxGeometry>
        </mxCell>
        <mxCell id="ywD8RWNssoRgn9kZ_ETu-114" value="" style="endArrow=classic;html=1;rounded=0;strokeColor=#007FFF;entryX=1;entryY=0.5;entryDx=0;entryDy=0;" parent="1" target="1gM_MYu2zcnsxkpQIaez-60" edge="1">
          <mxGeometry width="50" height="50" relative="1" as="geometry">
            <mxPoint x="-219" y="823" as="sourcePoint" />
            <mxPoint x="-217" y="783" as="targetPoint" />
          </mxGeometry>
        </mxCell>
        <mxCell id="ywD8RWNssoRgn9kZ_ETu-115" value="" style="endArrow=classic;html=1;rounded=0;strokeColor=#007FFF;entryX=0.5;entryY=0;entryDx=0;entryDy=0;" parent="1" target="1gM_MYu2zcnsxkpQIaez-94" edge="1">
          <mxGeometry width="50" height="50" relative="1" as="geometry">
            <mxPoint x="-295" y="516" as="sourcePoint" />
            <mxPoint x="-298" y="537" as="targetPoint" />
          </mxGeometry>
        </mxCell>
        <mxCell id="ywD8RWNssoRgn9kZ_ETu-116" value="&lt;span style=&quot;font-size: 18px;&quot;&gt;Ins [6-0]&lt;/span&gt;" style="text;html=1;align=right;verticalAlign=middle;resizable=0;points=[];autosize=1;strokeColor=none;fillColor=none;" parent="1" vertex="1">
          <mxGeometry x="-663.63" y="224" width="83" height="34" as="geometry" />
        </mxCell>
        <mxCell id="ywD8RWNssoRgn9kZ_ETu-121" value="&lt;span style=&quot;font-size: 18px;&quot;&gt;Ins [19-5]&lt;/span&gt;" style="text;html=1;align=right;verticalAlign=middle;resizable=0;points=[];autosize=1;strokeColor=none;fillColor=none;" parent="1" vertex="1">
          <mxGeometry x="-646" y="422" width="93" height="34" as="geometry" />
        </mxCell>
        <mxCell id="ywD8RWNssoRgn9kZ_ETu-122" value="&lt;span style=&quot;font-size: 18px;&quot;&gt;Ins [11-7]&lt;/span&gt;" style="text;html=1;align=right;verticalAlign=middle;resizable=0;points=[];autosize=1;strokeColor=none;fillColor=none;" parent="1" vertex="1">
          <mxGeometry x="-645" y="528" width="92" height="34" as="geometry" />
        </mxCell>
        <mxCell id="ywD8RWNssoRgn9kZ_ETu-123" value="&lt;span style=&quot;font-size: 18px;&quot;&gt;Ins [24-20]&lt;/span&gt;" style="text;html=1;align=right;verticalAlign=middle;resizable=0;points=[];autosize=1;strokeColor=none;fillColor=none;" parent="1" vertex="1">
          <mxGeometry x="-645" y="470" width="103" height="34" as="geometry" />
        </mxCell>
        <mxCell id="ywD8RWNssoRgn9kZ_ETu-124" value="&lt;span style=&quot;font-size: 18px;&quot;&gt;Ins [31-0]&lt;/span&gt;" style="text;html=1;align=right;verticalAlign=middle;resizable=0;points=[];autosize=1;strokeColor=none;fillColor=none;" parent="1" vertex="1">
          <mxGeometry x="-658" y="753" width="93" height="34" as="geometry" />
        </mxCell>
        <mxCell id="ywD8RWNssoRgn9kZ_ETu-135" value="" style="rounded=1;whiteSpace=wrap;html=1;arcSize=50;" parent="1" vertex="1">
          <mxGeometry x="208.62" y="94" width="17.76" height="114" as="geometry" />
        </mxCell>
        <mxCell id="ywD8RWNssoRgn9kZ_ETu-136" value="" style="group" parent="1" vertex="1" connectable="0">
          <mxGeometry x="129" y="58" width="31.001387663173375" height="114" as="geometry" />
        </mxCell>
        <mxCell id="ywD8RWNssoRgn9kZ_ETu-85" value="" style="rounded=1;whiteSpace=wrap;html=1;arcSize=50;" parent="ywD8RWNssoRgn9kZ_ETu-136" vertex="1">
          <mxGeometry width="17.76" height="114" as="geometry" />
        </mxCell>
        <mxCell id="ywD8RWNssoRgn9kZ_ETu-86" value="&lt;span style=&quot;font-size: 18px;&quot;&gt;&lt;b&gt;0&lt;/b&gt;&lt;/span&gt;" style="text;html=1;align=left;verticalAlign=middle;resizable=0;points=[];autosize=1;strokeColor=none;fillColor=none;" parent="ywD8RWNssoRgn9kZ_ETu-136" vertex="1">
          <mxGeometry x="3.001387663173375" y="2" width="28" height="34" as="geometry" />
        </mxCell>
        <mxCell id="ywD8RWNssoRgn9kZ_ETu-87" value="&lt;span style=&quot;font-size: 18px;&quot;&gt;&lt;b&gt;1&lt;/b&gt;&lt;/span&gt;" style="text;html=1;align=left;verticalAlign=middle;resizable=0;points=[];autosize=1;strokeColor=none;fillColor=none;" parent="ywD8RWNssoRgn9kZ_ETu-136" vertex="1">
          <mxGeometry x="0.001387663173375131" y="72.5" width="28" height="34" as="geometry" />
        </mxCell>
        <mxCell id="ywD8RWNssoRgn9kZ_ETu-137" value="&lt;span style=&quot;font-size: 18px;&quot;&gt;&lt;b&gt;0&lt;/b&gt;&lt;/span&gt;" style="text;html=1;align=left;verticalAlign=middle;resizable=0;points=[];autosize=1;strokeColor=none;fillColor=none;" parent="1" vertex="1">
          <mxGeometry x="211.00138766317338" y="97" width="28" height="34" as="geometry" />
        </mxCell>
        <mxCell id="ywD8RWNssoRgn9kZ_ETu-138" value="&lt;span style=&quot;font-size: 18px;&quot;&gt;&lt;b&gt;1&lt;/b&gt;&lt;/span&gt;" style="text;html=1;align=left;verticalAlign=middle;resizable=0;points=[];autosize=1;strokeColor=none;fillColor=none;" parent="1" vertex="1">
          <mxGeometry x="211.00138766317338" y="179" width="28" height="34" as="geometry" />
        </mxCell>
        <mxCell id="ywD8RWNssoRgn9kZ_ETu-139" value="" style="endArrow=classic;html=1;rounded=0;strokeColor=#007FFF;entryX=0.5;entryY=1;entryDx=0;entryDy=0;" parent="1" source="ywD8RWNssoRgn9kZ_ETu-141" target="ywD8RWNssoRgn9kZ_ETu-85" edge="1">
          <mxGeometry width="50" height="50" relative="1" as="geometry">
            <mxPoint x="138" y="241" as="sourcePoint" />
            <mxPoint x="58" y="501" as="targetPoint" />
          </mxGeometry>
        </mxCell>
        <mxCell id="ywD8RWNssoRgn9kZ_ETu-140" value="" style="endArrow=classic;html=1;rounded=0;strokeColor=#007FFF;entryX=0.5;entryY=1;entryDx=0;entryDy=0;" parent="1" target="ywD8RWNssoRgn9kZ_ETu-135" edge="1">
          <mxGeometry width="50" height="50" relative="1" as="geometry">
            <mxPoint x="217" y="290" as="sourcePoint" />
            <mxPoint x="208" y="235" as="targetPoint" />
            <Array as="points">
              <mxPoint x="217" y="244" />
            </Array>
          </mxGeometry>
        </mxCell>
        <mxCell id="ywD8RWNssoRgn9kZ_ETu-141" value="" style="shape=or;whiteSpace=wrap;html=1;rotation=-90;strokeColor=#007FFF;" parent="1" vertex="1">
          <mxGeometry x="121.38" y="204" width="33" height="45" as="geometry" />
        </mxCell>
        <mxCell id="ywD8RWNssoRgn9kZ_ETu-147" value="" style="endArrow=classic;html=1;rounded=0;strokeColor=#007FFF;entryX=-0.01;entryY=0.089;entryDx=0;entryDy=0;entryPerimeter=0;" parent="1" target="ywD8RWNssoRgn9kZ_ETu-141" edge="1">
          <mxGeometry width="50" height="50" relative="1" as="geometry">
            <mxPoint x="119" y="290" as="sourcePoint" />
            <mxPoint x="148" y="182" as="targetPoint" />
          </mxGeometry>
        </mxCell>
        <mxCell id="ywD8RWNssoRgn9kZ_ETu-148" value="" style="endArrow=classic;html=1;rounded=0;strokeColor=#007FFF;entryX=-0.006;entryY=0.927;entryDx=0;entryDy=0;entryPerimeter=0;" parent="1" target="ywD8RWNssoRgn9kZ_ETu-141" edge="1">
          <mxGeometry width="50" height="50" relative="1" as="geometry">
            <mxPoint x="157" y="291" as="sourcePoint" />
            <mxPoint x="155" y="244" as="targetPoint" />
          </mxGeometry>
        </mxCell>
      </root>
    </mxGraphModel>
  </diagram>
</mxfile>
